<svg xmlns="http://www.w3.org/2000/svg" viewBox="0 0 420.87 109.62"><defs><style>.cls-1{fill:#f47959;}</style></defs><title>afull-logo</title><g id="Layer_2" data-name="Layer 2"><g id="Layer_1-2" data-name="Layer 1"><path class="cls-1" d="M162.75,16.1c0,6.69-3.19,14.18-9.58,22.37a71.72,71.72,0,0,1-21.88,18.87L128.6,79.71c-4,1.5-8.39,1.7-8.19-1.79.1-2.1.7-7.79,1.6-17a19,19,0,0,1-5.4.7c-11.48,0-17.17-4.8-17.17-14.28,0-7.59,7.19-12.09,10.38-7.89-4.19,7.69-1.3,17.37,8.69,17.47a15.59,15.59,0,0,0,4-.5c.1-1.59.89-8.88,2.29-22s2.3-22.67,2.8-29A122.69,122.69,0,0,0,107.23,9.9c-1,.3-1.5-.2-1.4-1.69a7.09,7.09,0,0,1,1.6-4.3C148.87-5.28,162.75,2.91,162.75,16.1ZM137.69,5.51,132,51.75a53.66,53.66,0,0,0,14.19-15.28c3.89-6.29,5.89-12.08,5.89-17.38C152.07,11.8,147.57,6.71,137.69,5.51Z"/><path class="cls-1" d="M196.51,62.44c1.5-1.2,4-.3,3.49,1.39-1.89,6.4-7.19,11.59-12.88,11.69-3.7,0-6.09-2.1-7.19-6.39q-3.75,6.28-9,6.29c-6.79,0-10.19-6.59-10.19-16.08,0-8.09,2.5-16.18,8.49-21.57a15.13,15.13,0,0,1,10.49-4c5.09,0,9.59,3.3,8.39,9.19q1.95,1.2.6,6.29c-3.7,12.69-3.9,21.37.5,21.37C191.81,70.62,194.21,67.93,196.51,62.44ZM178,38.57c-2.49,0-4.59,2.49-6.09,7.39a49.6,49.6,0,0,0-2.4,15.48c0,6.19,1.1,9.28,3.2,9.28,2.9.4,6.09-5.39,7.49-20.87a2.32,2.32,0,0,1-1.9-2.69C180.63,44.66,182.13,38.57,178,38.57Z"/><path class="cls-1" d="M199.7,28.78l-5.39.4c-2.7.3-3-3.2-1.8-5.09h7.89L202.6,10c3.09-2,5.69-2.79,8-2.39,1.6.2,2.19,1.2,1.7,3.09-1.3,6.69-2.2,11.09-2.6,13.29l6.69-.1c4.09,0,4.79,1.29,3.2,4l-10.69.4c-2.3,13.18-3.7,23.07-4.19,31.56S205.09,73,207.59,73c4.49,0,8.29-4.49,11.59-13.58,1.59-1.1,4-.5,3.69,1.2-.5,3.29-2.4,6.79-5.69,10.58S210.29,77,206.79,77C195.31,77,194.41,60.74,199.7,28.78Z"/><path class="cls-1" d="M243.34,75.42c-2.89,0-5-1.4-6.49-4.3-2.89-5.59-2.49-15-1-25.86a68.75,68.75,0,0,0-6.29,12.08,160.25,160.25,0,0,0-5.89,16.88c-6.29,2.1-7.69,1.2-7.69-3.2q0-11.38,6.49-64.91c2.7-1.9,5.19-2.7,7.49-2.5a2.56,2.56,0,0,1,2.4,3.2L224,61.44c7-18.68,12.88-28,17.58-28,1.89.1,3.69,1.6,5.39,4.4-4.4,14-5.19,25.16-4,29.46.6,2.2,1.4,3.29,2.5,3.29,2.6,0,5-2.69,7.29-8.18,1.5-1.2,4-.3,3.5,1.39a17.82,17.82,0,0,1-5,8.19A11.05,11.05,0,0,1,243.34,75.42Z"/><path class="cls-1" d="M254.53,53c1.3-16,2.89-30.36,4.79-43.05,7.59-2.89,12-1.39,11.19,2.4-4.6,24.37-7.59,41.85-9.09,52.33,4.39,7.19,7.69,6.29,11.28-3.69a90,90,0,0,1,2.8-23.07c7.59-3.2,9.29-1,8.69,1.6-4.89,21.27-5.89,31.15-1,31.15,2.6,0,5-2.69,7.29-8.18,1.5-1.2,4-.3,3.5,1.39-1.9,6.4-7.19,11.59-12.89,11.69-3.49,0-5.89-2.3-7.29-7-1.8,3.09-3.79,5-6,5.69,4.79,11.49,3.1,22.47-2.7,29.86-2.89,3.7-6.09,5.49-9.58,5.49-1.3.2-3.1,0-3.5-4.69.2-13.08.7-25.67,1.5-37.85a28.39,28.39,0,0,1-4-6.69C250,54.65,252.43,52.45,254.53,53Zm5.69,21.47c-1,8.09-2,18-2.9,29.76C261.92,103.88,268.91,91.5,260.22,74.42ZM276.5,24.88a5.53,5.53,0,0,1,5.39-5.49c4.1,0,6.09,1.9,6.09,5.59C288,31.48,276.5,31.58,276.5,24.88Z"/><path class="cls-1" d="M308,67.33c-1.4-5.39-1.4-12.58-.1-21.47C304,54.05,300,63.63,295.77,74.52c-5.19,1.6-7.29.3-7.29-2.6.1-8.19,1.3-20.27,3.4-36.35l3.59-1.6c3.3-1.5,6-.2,5.6,2.3q-.45,2.4-2.7,13.18t-3,16.48a280,280,0,0,1,13.69-31.16c1.59-2.89,5.59-3.39,9.38,1.2-3.59,16.78-4.19,28.16-3,31.86.5,1.9,1.3,2.79,2.39,2.79,2.6,0,5-2.69,7.29-8.18,1.5-1.2,4-.3,3.5,1.39-1.9,6.4-7.19,11.59-12.88,11.59Q309.9,75.42,308,67.33Z"/><path class="cls-1" d="M358.39,7.61q0,26.36-7,47c-.1,10.68.6,16,2.1,16,2.59,0,5-2.69,7.29-8.18,1.49-1.2,4-.3,3.49,1.39-1.9,6.4-7.19,11.59-12.88,11.59-2.9,0-4.8-2.8-5.69-8.29-3.5,5.49-7.29,8.19-11.49,8.29-2.9,0-5.19-1.8-7-5.39s-2.8-7.89-2.8-13a33.42,33.42,0,0,1,4-16.38c2.6-4.89,5.79-7.29,9.59-7.29a14.74,14.74,0,0,1,8.09,2.4c.49-6.59,1.49-16.48,3-29.76C356.69.82,358.39,1.92,358.39,7.61ZM345.81,39.67a13.59,13.59,0,0,0-4.8-.9q-3.58,0-5.69,7.79a47.22,47.22,0,0,0-1.7,15.78c.3,5.29,1.3,7.89,3.1,7.89,3.69,0,6.49-6.3,8.39-19C345.21,49.25,345.41,45.36,345.81,39.67Z"/><path class="cls-1" d="M370.17,67.13Q372.12,74,377.36,74c4.4,0,8.89-5.59,11.59-13.58,2.59-1.4,3.89.1,3.69,1.2-.7,3.69-2.69,7.29-6.19,11s-7.19,5.49-11.08,5.49c-8.29,0-14.79-6.79-14.79-18.67,0-10.69,2.6-18.78,6.2-22.47s6.69-5.09,9.58-5.09c5.6,0,8.29,3.69,8.29,9.18C384.65,51.05,378.46,60.44,370.17,67.13Zm-.8-4.49a34.09,34.09,0,0,0,8-22.58c0-2.09-.5-3.19-1.59-3.19-1.9,0-6.5,6.69-6.5,23.07A17.89,17.89,0,0,0,369.37,62.64Z"/><path class="cls-1" d="M400.43,47.75c-2,.1-3.39.2-4.29.2a48.05,48.05,0,0,1-4.9,18c-1.29,2.4-3.49,1.8-4.29-.2q3.3-7,4.19-18.57c-3.09-1.1-4.69-3.9-4.69-8.39a13.35,13.35,0,0,1,2.4-7.59c1.6-2.3,3.79-2.9,6.49-1.6.5,5.09.9,8.89,1,11.18,6,.1,10.08-.6,12.38-2.09q3,.15,2.1,3.29c-5.69,19.78-4.1,29.26-.8,28.66,2.6,0,5-2.69,7.29-8.18,1.5-1.2,4-.3,3.49,1.39-1.89,6.4-7.19,11.59-12.88,11.59C403.23,75.42,396.64,69.93,400.43,47.75Z"/><path class="cls-1" d="M39.72,34.38A40.2,40.2,0,0,0,12.44,72.1a40.2,40.2,0,0,1,4.68-62A40.31,40.31,0,0,1,39.72,34.38Z"/><path class="cls-1" d="M80.39,43A40.21,40.21,0,0,1,43.63,83.08,40.25,40.25,0,0,1,70.27,36.33a39.52,39.52,0,0,0-8-2.91A40.26,40.26,0,0,0,31.17,3.85a40.62,40.62,0,0,1,9-1A40.19,40.19,0,0,1,80.39,43Z"/></g></g></svg>