<svg xmlns="http://www.w3.org/2000/svg" viewBox="0 0 332.56 331.96"><defs><style>.cls-1{fill:#f47959;}</style></defs><title>a1</title><g id="Layer_2" data-name="Layer 2"><g id="Layer_1-2" data-name="Layer 1"><path class="cls-1" d="M164.32,130.49A166.35,166.35,0,0,0,51.46,286.56,166.3,166.3,0,0,1,70.83,30.11,166.71,166.71,0,0,1,164.32,130.49Z"/><path class="cls-1" d="M332.56,166.28A166.29,166.29,0,0,1,180.5,332,166.44,166.44,0,0,1,290.72,138.58a163,163,0,0,0-33.27-12.07A166.52,166.52,0,0,0,128.93,4.21,166.43,166.43,0,0,1,332.56,166.28Z"/></g></g></svg>